{"title":"Hansel And Gretel Get Baked 2013 WEBRip XViD juggs","uid":8190701,"size":750260989,"categoryP":"video","categoryS":"movies","magnet":"?xt=urn:btih:971fa10f2fd0f4b199df2b6da3f3292087cfd68f&amp;dn=Hansel+And+Gretel+Get+Baked+2013+WEBRip+XViD+juggs&amp;tr=udp%3A%2F%2Ftracker.openbittorrent.com%3A80&amp;tr=udp%3A%2F%2Fopen.demonii.com%3A1337&amp;tr=udp%3A%2F%2Ftracker.coppersurfer.tk%3A6969&amp;tr=udp%3A%2F%2Fexodus.desync.com%3A6969","seeders":1,"leechers":1,"uploader":"juggs99","files":3,"time":1361815694,"description":" &lt;a href=&quot;http://www.imdb.com/title/tt2081194/&quot; rel=&quot;nofollow&quot; target=&quot;_NEW&quot;&gt;http://www.imdb.com/title/tt2081194/&lt;/a&gt;\n\nSource : CHD\n\nFormat : AVI\nFormat/Info : Audio Video Interleave\nFile size : 702 MiB\nDuration : 1h 26mn\nOverall bit rate : 1 129 Kbps\nWriting library : VirtualDub build 32842/release\n\nVideo\nID : 0\nFormat : MPEG-4 Visual\nFormat profile : Advanced Simple@L5\nFormat settings, BVOP : 4\nFormat settings, QPel : No\nFormat settings, GMC : No warppoints\nFormat settings, Matrix : Default (H.263)\nMuxing mode : Packed bitstream\nCodec ID : XVID\nCodec ID/Hint : XviD\nDuration : 1h 26mn\nBit rate : 992 Kbps\nWidth : 640 pixels\nHeight : 352 pixels\nDisplay aspect ratio : 16:9\nFrame rate : 23.976 fps\nColor space : YUV\nChroma subsampling : 4:2:0\nBit depth : 8 bits\nScan type : Progressive\nCompression mode : Lossy\nBits/(Pixel*Frame) : 0.184\nStream size : 616 MiB (88%)\nWriting library : XviD 64\n\nAudio\nID : 1\nFormat : MPEG Audio\nFormat version : Version 1\nFormat profile : Layer 3\nCodec ID : 55\nCodec ID/Hint : MP3\nDuration : 1h 26mn\nBit rate mode : Constant\nBit rate : 128 Kbps\nChannel(s) : 2 channels\nSampling rate : 44.1 KHz\nCompression mode : Lossy\nStream size : 79.5 MiB (11%)\nAlignment : Split accross interleaves\nInterleave, duration : 42 ms (1.00 video frame)\nInterleave, preload duration : 500 ms\nWriting library : LAME3.99r\nEncoding settings : -m s -V 4 -q 3 -lowpass 17 -b 128\n\n\nPlot\nA brother and sister battle a witch who lures teenagers into her suburban home with her special blend of marijuana where she then proceeds to kill and eat them to maintain her youth and beauty.\n\n &lt;a href=&quot;\nhttp://www.shotpix.com/images/40894712012747834516.png&quot; rel=&quot;nofollow&quot; target=&quot;_NEW&quot;&gt;\nhttp://www.shotpix.com/images/40894712012747834516.png&lt;/a&gt; &lt;a href=&quot;\nhttp://www.shotpix.com/images/30732629195466872724.png&quot; rel=&quot;nofollow&quot; target=&quot;_NEW&quot;&gt;\nhttp://www.shotpix.com/images/30732629195466872724.png&lt;/a&gt; &lt;a href=&quot;\nhttp://www.shotpix.com/images/89367680427154206322.png&quot; rel=&quot;nofollow&quot; target=&quot;_NEW&quot;&gt;\nhttp://www.shotpix.com/images/89367680427154206322.png&lt;/a&gt; &lt;a href=&quot;\nhttp://www.shotpix.com/images/74329020603846715240.png&quot; rel=&quot;nofollow&quot; target=&quot;_NEW&quot;&gt;\nhttp://www.shotpix.com/images/74329020603846715240.png&lt;/a&gt;","torrent":{"xt":"urn:btih:971fa10f2fd0f4b199df2b6da3f3292087cfd68f","amp;dn":"Hansel+And+Gretel+Get+Baked+2013+WEBRip+XViD+juggs","amp;tr":["udp%3A%2F%2Ftracker.openbittorrent.com%3A80","udp%3A%2F%2Fopen.demonii.com%3A1337","udp%3A%2F%2Ftracker.coppersurfer.tk%3A6969","udp%3A%2F%2Fexodus.desync.com%3A6969"],"infoHash":"971fa10f2fd0f4b199df2b6da3f3292087cfd68f","infoHashBuffer":{"type":"Buffer","data":[151,31,161,15,47,208,244,177,153,223,43,109,163,243,41,32,135,207,214,143]},"announce":[],"urlList":[]}}